<svg fill="none" height="14" viewBox="0 0 14 14" width="14" xmlns="http://www.w3.org/2000/svg" xmlns:xlink="http://www.w3.org/1999/xlink"><clipPath id="a"><path d="m0 0h14v14h-14z"/></clipPath><g clip-path="url(#a)" stroke="#000" stroke-linecap="round" stroke-linejoin="round"><path d="m.5 13.5h12.9942"/><path d="m6.49733 10.0016-2.99867.5397.49978-3.03862 6.72696-6.707014c.093-.093686.2035-.168047.3253-.218793s.2525-.076873.3844-.076873c.132 0 .2626.026127.3844.076873s.2324.125107.3253.218793l1.0595 1.059524c.0937.09293.1681.20348.2188.32528.0508.12181.0769.25245.0769.38441 0 .13195-.0261.2626-.0769.3844-.0507.12181-.1251.23236-.2188.32528z"/></g></svg>