<svg xmlns="http://www.w3.org/2000/svg" fill="none" viewBox="0 0 615 187.9714285714286" style="max-height: 500px" width="615" height="187.9714285714286">
<path fill="#0B0A24" d="M556.093 179.308C549.421 179.308 543.476 178.244 538.257 176.116C533.038 173.946 528.908 170.755 525.868 166.541C522.873 162.285 521.375 156.986 521.375 150.645C521.375 145.304 522.441 140.819 524.574 137.189C526.707 133.559 529.612 130.639 533.288 128.428C536.964 126.216 541.139 124.547 545.813 123.421C550.533 122.294 555.48 121.502 560.653 121.043C566.735 120.459 571.636 119.916 575.357 119.416C579.079 118.873 581.779 118.08 583.458 117.037C585.137 115.994 585.977 114.451 585.977 112.406V112.031C585.977 108.067 584.615 105.001 581.892 102.831C579.215 100.661 575.403 99.5767 570.456 99.5767C565.237 99.5767 561.085 100.641 557.999 102.768C554.913 104.855 552.87 107.483 551.872 110.654L525.051 108.651C526.412 102.81 529.09 97.7617 533.084 93.5061C537.077 89.2087 542.228 85.9127 548.536 83.6179C554.89 81.2815 562.242 80.1133 570.592 80.1133C576.401 80.1133 581.961 80.7391 587.27 81.9908C592.625 83.2424 597.368 85.1825 601.498 87.811C605.673 90.4395 608.963 93.819 611.368 97.9495C613.774 102.038 614.976 106.941 614.976 112.657V177.493H587.475V164.163H586.658C584.978 167.167 582.732 169.816 579.918 172.111C577.105 174.364 573.724 176.137 569.775 177.43C565.827 178.682 561.266 179.308 556.093 179.308ZM564.398 160.908C568.663 160.908 572.43 160.136 575.698 158.593C578.965 157.007 581.529 154.879 583.39 152.209C585.251 149.539 586.181 146.514 586.181 143.135V132.933C585.273 133.476 584.025 133.977 582.437 134.435C580.894 134.853 579.147 135.249 577.195 135.625C575.244 135.958 573.292 136.271 571.341 136.563C569.39 136.814 567.62 137.043 566.031 137.252C562.628 137.711 559.655 138.441 557.114 139.442C554.572 140.443 552.598 141.799 551.191 143.51C549.784 145.179 549.081 147.265 549.081 149.768C549.081 153.398 550.511 156.173 553.37 158.092C556.274 159.969 559.95 160.908 564.398 160.908Z"/>
<path fill="#0B0A24" d="M450.834 177.493V81.3651H478.948V98.1374H480.038C481.944 92.1711 485.143 87.6652 489.636 84.6194C494.129 81.532 499.302 79.9883 505.157 79.9883C506.609 79.9883 508.175 80.0717 509.854 80.2386C511.533 80.4055 513.008 80.635 514.279 80.927V104.583C512.917 104.208 511.034 103.874 508.628 103.582C506.223 103.29 504.022 103.144 502.025 103.144C497.759 103.144 493.947 103.999 490.589 105.71C487.276 107.379 484.644 109.715 482.692 112.719C480.786 115.723 479.833 119.186 479.833 123.108V177.493H450.834Z"/>
<path fill="#0B0A24" d="M380.513 179.37C369.939 179.37 360.795 177.305 353.08 173.174C345.41 169.002 339.488 163.203 335.313 155.776C331.137 148.308 329.05 139.651 329.05 129.804C329.05 119.874 331.137 111.196 335.313 103.77C339.488 96.3015 345.41 90.5021 353.08 86.3716C360.795 82.1994 369.939 80.1133 380.513 80.1133C391.088 80.1133 400.209 82.1994 407.879 86.3716C415.594 90.5021 421.539 96.3015 425.714 103.77C429.89 111.196 431.977 119.874 431.977 129.804C431.977 139.651 429.89 148.308 425.714 155.776C421.539 163.203 415.594 169.002 407.879 173.174C400.209 177.305 391.088 179.37 380.513 179.37ZM380.65 158.718C385.46 158.718 389.476 157.466 392.699 154.963C395.921 152.418 398.349 148.955 399.983 144.574C401.662 140.193 402.501 135.207 402.501 129.617C402.501 124.026 401.662 119.04 399.983 114.659C398.349 110.278 395.921 106.815 392.699 104.27C389.476 101.725 385.46 100.453 380.65 100.453C375.794 100.453 371.709 101.725 368.396 104.27C365.129 106.815 362.655 110.278 360.976 114.659C359.343 119.04 358.526 124.026 358.526 129.617C358.526 135.207 359.343 140.193 360.976 144.574C362.655 148.955 365.129 152.418 368.396 154.963C371.709 157.466 375.794 158.718 380.65 158.718Z"/>
<path fill="#0B0A24" d="M321.8 81.3647L285.245 177.493H252.569L216.014 81.3647H246.647L268.362 150.144H269.451L291.099 81.3647H321.8Z"/>
<path fill="#0B0A24" d="M172.089 177.493V81.3648H201.089V177.493H172.089ZM186.657 68.9734C182.346 68.9734 178.647 67.6591 175.561 65.0306C172.52 62.3604 171 59.1687 171 55.4554C171 51.7838 172.52 48.6338 175.561 46.0053C178.647 43.3351 182.346 42 186.657 42C190.968 42 194.644 43.3351 197.685 46.0053C200.771 48.6338 202.314 51.7838 202.314 55.4554C202.314 59.1687 200.771 62.3604 197.685 65.0306C194.644 67.6591 190.968 68.9734 186.657 68.9734Z"/>
<path fill="#005D9B" d="M51.1922 187.255C49.082 187.794 46.9019 188 44.724 188H41.5C59.2658 178.761 63.3852 170.519 62.5 151.5V115C62.5 108.373 67.8726 103 74.5 103H107.5C136.416 100.953 151.98 99.3759 155.5 80.5C153.912 91.9043 150.528 98.5682 139.5 111L74.5 173.5C66.6935 180.841 61.5418 184.612 51.1922 187.255Z" clip-rule="evenodd" fill-rule="evenodd"/>
<path fill="url(#paint0_linear_175_2)" d="M31 0C13.8792 0 0 13.8792 0 31V157C0 174.121 13.8792 188 31 188H41.5C59.2658 178.761 63.3852 170.519 62.5 151.5C59.2638 159.523 56.4027 162.815 50.7022 164.734C48.9336 165.329 47.0571 165.5 45.1911 165.5C32.1068 165.5 21.5 154.893 21.5 141.809V53.5C21.5 36.3792 35.3792 22.5 52.5 22.5H102.729C105.891 22.5 109.051 22.9447 112.022 24.0254C125.31 28.8576 130.931 34.5719 133.569 48.067C133.884 49.6767 134 51.3239 134 52.9641V72.4232C134 74.4694 133.822 76.5197 133.332 78.5066C130.082 91.7043 123.988 97.305 107.5 103C136.416 100.953 151.98 99.3759 155.5 80.5V48.2271C155.5 45.422 155.141 42.6178 154.308 39.939C148.002 19.6413 139.219 10.0633 116.252 1.65705C113.125 0.512601 109.803 0 106.473 0H31Z"/>
<rect fill="url(#paint1_linear_175_2)" rx="4.5" height="9" width="60" y="39" x="43"/>
<rect fill="url(#paint2_linear_175_2)" rx="4.5" height="9" width="60" y="59" x="43"/>
<rect fill="url(#paint3_linear_175_2)" rx="4.5" height="9" width="42" y="79" x="43"/>
<path fill="#0B0A24" d="M243.234 212.963V214.84H236.702V212.963H243.234ZM237.528 203.16V214.84H235V203.16H237.528ZM242.383 207.917V209.746H236.702V207.917H242.383ZM243.226 203.16V205.045H236.702V203.16H243.226Z"/>
<path fill="#0B0A24" d="M249.792 206.16L251.301 208.799L252.852 206.16H255.439L252.86 210.404L255.557 214.84H252.961L251.318 212.048L249.674 214.84H247.079L249.776 210.404L247.197 206.16H249.792Z"/>
<path fill="#0B0A24" d="M264.366 206.16V207.797H259.056V206.16H264.366ZM260.371 204.019H262.798V212.225C262.798 212.476 262.832 212.668 262.899 212.802C262.972 212.936 263.079 213.029 263.219 213.083C263.36 213.131 263.537 213.155 263.75 213.155C263.902 213.155 264.037 213.15 264.155 213.139C264.279 213.123 264.383 213.107 264.467 213.091L264.475 214.791C264.267 214.856 264.043 214.906 263.801 214.944C263.559 214.981 263.293 215 263 215C262.467 215 262 214.917 261.601 214.751C261.208 214.58 260.905 214.307 260.691 213.933C260.478 213.559 260.371 213.067 260.371 212.457V204.019Z"/>
<path fill="#0B0A24" d="M271.455 208.053V214.84H269.028V206.16H271.312L271.455 208.053ZM274.202 206.104L274.16 208.246C274.042 208.23 273.899 208.217 273.73 208.206C273.567 208.19 273.419 208.182 273.284 208.182C272.941 208.182 272.643 208.225 272.39 208.31C272.143 208.39 271.935 208.511 271.767 208.671C271.604 208.832 271.48 209.027 271.396 209.257C271.317 209.487 271.272 209.749 271.261 210.043L270.772 209.898C270.772 209.337 270.831 208.821 270.949 208.35C271.067 207.874 271.239 207.46 271.463 207.107C271.694 206.754 271.975 206.481 272.306 206.289C272.638 206.096 273.017 206 273.444 206C273.579 206 273.716 206.011 273.857 206.032C273.997 206.048 274.113 206.072 274.202 206.104Z"/>
<path fill="#0B0A24" d="M283.264 212.882V209.016C283.264 208.738 283.216 208.5 283.12 208.302C283.025 208.099 282.876 207.941 282.674 207.829C282.477 207.717 282.221 207.66 281.907 207.66C281.637 207.66 281.404 207.706 281.207 207.797C281.011 207.882 280.859 208.008 280.752 208.174C280.645 208.334 280.592 208.524 280.592 208.743H278.165C278.165 208.374 278.255 208.024 278.434 207.693C278.614 207.361 278.875 207.07 279.218 206.818C279.561 206.561 279.968 206.361 280.44 206.217C280.918 206.072 281.452 206 282.042 206C282.75 206 283.379 206.112 283.93 206.337C284.48 206.561 284.913 206.898 285.227 207.348C285.548 207.797 285.708 208.358 285.708 209.032V212.746C285.708 213.222 285.739 213.612 285.801 213.917C285.862 214.217 285.952 214.479 286.07 214.703V214.84H283.618C283.5 214.604 283.41 214.31 283.348 213.957C283.292 213.599 283.264 213.241 283.264 212.882ZM283.584 209.553L283.601 210.861H282.244C281.924 210.861 281.645 210.896 281.409 210.965C281.174 211.035 280.98 211.134 280.828 211.262C280.676 211.385 280.564 211.529 280.491 211.695C280.423 211.861 280.39 212.043 280.39 212.241C280.39 212.439 280.437 212.618 280.533 212.778C280.628 212.933 280.766 213.056 280.946 213.147C281.126 213.233 281.336 213.275 281.578 213.275C281.943 213.275 282.261 213.206 282.53 213.067C282.8 212.928 283.008 212.757 283.154 212.553C283.306 212.35 283.384 212.158 283.39 211.976L284.031 212.955C283.941 213.174 283.817 213.401 283.66 213.636C283.508 213.872 283.314 214.094 283.078 214.302C282.842 214.505 282.559 214.674 282.227 214.807C281.896 214.936 281.502 215 281.047 215C280.468 215 279.943 214.89 279.471 214.671C279.005 214.447 278.634 214.139 278.358 213.749C278.089 213.353 277.954 212.904 277.954 212.401C277.954 211.947 278.044 211.543 278.224 211.19C278.403 210.837 278.668 210.54 279.016 210.299C279.37 210.053 279.811 209.869 280.339 209.746C280.867 209.618 281.48 209.553 282.176 209.553H283.584Z"/>
<path fill="#0B0A24" d="M294.626 213.195C294.924 213.195 295.188 213.142 295.418 213.035C295.648 212.922 295.828 212.767 295.958 212.57C296.092 212.366 296.163 212.128 296.168 211.856H298.452C298.447 212.465 298.275 213.008 297.938 213.484C297.601 213.955 297.149 214.326 296.581 214.599C296.014 214.866 295.379 215 294.676 215C293.968 215 293.35 214.888 292.822 214.663C292.3 214.439 291.864 214.128 291.516 213.733C291.167 213.332 290.906 212.866 290.732 212.337C290.558 211.802 290.471 211.23 290.471 210.62V210.388C290.471 209.773 290.558 209.201 290.732 208.671C290.906 208.136 291.167 207.671 291.516 207.275C291.864 206.874 292.3 206.561 292.822 206.337C293.345 206.112 293.957 206 294.66 206C295.407 206 296.061 206.136 296.623 206.409C297.191 206.682 297.635 207.072 297.955 207.58C298.281 208.083 298.447 208.679 298.452 209.369H296.168C296.163 209.08 296.098 208.818 295.974 208.583C295.856 208.348 295.682 208.16 295.452 208.021C295.227 207.877 294.949 207.805 294.617 207.805C294.263 207.805 293.974 207.877 293.749 208.021C293.525 208.16 293.35 208.353 293.227 208.599C293.103 208.84 293.016 209.115 292.966 209.425C292.921 209.73 292.898 210.051 292.898 210.388V210.62C292.898 210.957 292.921 211.281 292.966 211.591C293.01 211.901 293.095 212.176 293.218 212.417C293.348 212.658 293.525 212.848 293.749 212.987C293.974 213.126 294.266 213.195 294.626 213.195Z"/>
<path fill="#0B0A24" d="M307.606 206.16V207.797H302.296V206.16H307.606ZM303.611 204.019H306.039V212.225C306.039 212.476 306.072 212.668 306.14 212.802C306.213 212.936 306.32 213.029 306.46 213.083C306.6 213.131 306.777 213.155 306.991 213.155C307.143 213.155 307.278 213.15 307.396 213.139C307.519 213.123 307.623 213.107 307.707 213.091L307.716 214.791C307.508 214.856 307.283 214.906 307.042 214.944C306.8 214.981 306.533 215 306.241 215C305.707 215 305.241 214.917 304.842 214.751C304.448 214.58 304.145 214.307 303.932 213.933C303.718 213.559 303.611 213.067 303.611 212.457V204.019Z"/>
<path fill="#0B0A24" d="M312.386 213.725C312.386 213.382 312.51 213.096 312.757 212.866C313.01 212.636 313.344 212.521 313.76 212.521C314.176 212.521 314.507 212.636 314.754 212.866C315.007 213.096 315.134 213.382 315.134 213.725C315.134 214.067 315.007 214.353 314.754 214.583C314.507 214.813 314.176 214.928 313.76 214.928C313.344 214.928 313.01 214.813 312.757 214.583C312.51 214.353 312.386 214.067 312.386 213.725Z"/>
<path fill="#0B0A24" d="M334.672 211.783C334.672 211.575 334.638 211.388 334.571 211.222C334.509 211.051 334.391 210.896 334.217 210.757C334.043 210.612 333.798 210.471 333.484 210.332C333.169 210.193 332.762 210.048 332.262 209.898C331.705 209.727 331.177 209.535 330.677 209.321C330.183 209.107 329.744 208.858 329.362 208.575C328.986 208.286 328.688 207.952 328.469 207.572C328.255 207.193 328.149 206.751 328.149 206.249C328.149 205.762 328.261 205.321 328.486 204.925C328.711 204.524 329.025 204.182 329.43 203.898C329.834 203.61 330.312 203.388 330.863 203.233C331.419 203.078 332.028 203 332.691 203C333.596 203 334.386 203.155 335.06 203.465C335.734 203.775 336.257 204.201 336.627 204.741C337.004 205.281 337.192 205.898 337.192 206.594H334.681C334.681 206.251 334.605 205.952 334.453 205.695C334.307 205.433 334.082 205.227 333.779 205.078C333.481 204.928 333.104 204.853 332.649 204.853C332.211 204.853 331.846 204.917 331.554 205.045C331.261 205.168 331.042 205.337 330.896 205.551C330.75 205.759 330.677 205.995 330.677 206.257C330.677 206.455 330.728 206.634 330.829 206.794C330.936 206.955 331.093 207.104 331.301 207.243C331.509 207.382 331.764 207.513 332.068 207.636C332.371 207.759 332.722 207.88 333.121 207.997C333.79 208.19 334.377 208.406 334.883 208.647C335.394 208.888 335.821 209.158 336.164 209.457C336.507 209.757 336.765 210.096 336.939 210.476C337.113 210.856 337.201 211.286 337.201 211.767C337.201 212.275 337.097 212.73 336.889 213.131C336.681 213.532 336.38 213.872 335.987 214.15C335.594 214.428 335.124 214.639 334.579 214.783C334.034 214.928 333.425 215 332.75 215C332.144 215 331.545 214.925 330.955 214.775C330.365 214.62 329.829 214.388 329.345 214.078C328.868 213.767 328.486 213.372 328.199 212.89C327.913 212.409 327.769 211.84 327.769 211.182H330.306C330.306 211.545 330.365 211.853 330.483 212.104C330.601 212.356 330.767 212.559 330.981 212.714C331.2 212.869 331.458 212.981 331.756 213.051C332.059 213.12 332.391 213.155 332.75 213.155C333.189 213.155 333.548 213.096 333.829 212.979C334.116 212.861 334.327 212.698 334.461 212.489C334.602 212.281 334.672 212.045 334.672 211.783Z"/>
<path fill="#0B0A24" d="M346.515 206.16V207.797H341.205V206.16H346.515ZM342.52 204.019H344.947V212.225C344.947 212.476 344.981 212.668 345.048 212.802C345.121 212.936 345.228 213.029 345.368 213.083C345.509 213.131 345.686 213.155 345.899 213.155C346.051 213.155 346.186 213.15 346.304 213.139C346.428 213.123 346.532 213.107 346.616 213.091L346.624 214.791C346.416 214.856 346.192 214.906 345.95 214.944C345.708 214.981 345.441 215 345.149 215C344.616 215 344.149 214.917 343.75 214.751C343.357 214.58 343.053 214.307 342.84 213.933C342.626 213.559 342.52 213.067 342.52 212.457V204.019Z"/>
<path fill="#0B0A24" d="M353.604 208.053V214.84H351.176V206.16H353.46L353.604 208.053ZM356.351 206.104L356.309 208.246C356.191 208.23 356.048 208.217 355.879 208.206C355.716 208.19 355.568 208.182 355.433 208.182C355.09 208.182 354.792 208.225 354.539 208.31C354.292 208.39 354.084 208.511 353.916 208.671C353.753 208.832 353.629 209.027 353.545 209.257C353.466 209.487 353.421 209.749 353.41 210.043L352.921 209.898C352.921 209.337 352.98 208.821 353.098 208.35C353.216 207.874 353.387 207.46 353.612 207.107C353.843 206.754 354.123 206.481 354.455 206.289C354.787 206.096 355.166 206 355.593 206C355.728 206 355.865 206.011 356.006 206.032C356.146 206.048 356.261 206.072 356.351 206.104Z"/>
<path fill="#0B0A24" d="M366.171 212.762V206.16H368.598V214.84H366.314L366.171 212.762ZM366.441 210.981L367.157 210.965C367.157 211.543 367.087 212.08 366.947 212.578C366.806 213.07 366.595 213.497 366.314 213.861C366.033 214.219 365.68 214.5 365.252 214.703C364.825 214.901 364.323 215 363.744 215C363.3 215 362.89 214.941 362.513 214.824C362.142 214.701 361.822 214.511 361.553 214.254C361.288 213.992 361.081 213.658 360.929 213.251C360.783 212.84 360.71 212.345 360.71 211.767V206.16H363.137V211.783C363.137 212.04 363.168 212.257 363.23 212.433C363.297 212.61 363.39 212.754 363.508 212.866C363.626 212.979 363.764 213.059 363.921 213.107C364.084 213.155 364.264 213.179 364.46 213.179C364.96 213.179 365.354 213.083 365.64 212.89C365.932 212.698 366.137 212.436 366.255 212.104C366.379 211.767 366.441 211.393 366.441 210.981Z"/>
<path fill="#0B0A24" d="M377.5 213.195C377.797 213.195 378.061 213.142 378.292 213.035C378.522 212.922 378.702 212.767 378.831 212.57C378.966 212.366 379.036 212.128 379.042 211.856H381.326C381.32 212.465 381.149 213.008 380.812 213.484C380.475 213.955 380.022 214.326 379.455 214.599C378.887 214.866 378.253 215 377.55 215C376.842 215 376.224 214.888 375.696 214.663C375.173 214.439 374.738 214.128 374.39 213.733C374.041 213.332 373.78 212.866 373.606 212.337C373.432 211.802 373.345 211.23 373.345 210.62V210.388C373.345 209.773 373.432 209.201 373.606 208.671C373.78 208.136 374.041 207.671 374.39 207.275C374.738 206.874 375.173 206.561 375.696 206.337C376.219 206.112 376.831 206 377.533 206C378.281 206 378.935 206.136 379.497 206.409C380.065 206.682 380.508 207.072 380.829 207.58C381.155 208.083 381.32 208.679 381.326 209.369H379.042C379.036 209.08 378.972 208.818 378.848 208.583C378.73 208.348 378.556 208.16 378.326 208.021C378.101 207.877 377.823 207.805 377.491 207.805C377.137 207.805 376.848 207.877 376.623 208.021C376.398 208.16 376.224 208.353 376.101 208.599C375.977 208.84 375.89 209.115 375.839 209.425C375.794 209.73 375.772 210.051 375.772 210.388V210.62C375.772 210.957 375.794 211.281 375.839 211.591C375.884 211.901 375.968 212.176 376.092 212.417C376.221 212.658 376.398 212.848 376.623 212.987C376.848 213.126 377.14 213.195 377.5 213.195Z"/>
<path fill="#0B0A24" d="M390.48 206.16V207.797H385.17V206.16H390.48ZM386.485 204.019H388.912V212.225C388.912 212.476 388.946 212.668 389.013 212.802C389.087 212.936 389.193 213.029 389.334 213.083C389.474 213.131 389.651 213.155 389.865 213.155C390.016 213.155 390.151 213.15 390.269 213.139C390.393 213.123 390.497 213.107 390.581 213.091L390.59 214.791C390.382 214.856 390.157 214.906 389.915 214.944C389.674 214.981 389.407 215 389.115 215C388.581 215 388.114 214.917 387.716 214.751C387.322 214.58 387.019 214.307 386.805 213.933C386.592 213.559 386.485 213.067 386.485 212.457V204.019Z"/>
<path fill="#0B0A24" d="M400.536 212.762V206.16H402.963V214.84H400.679L400.536 212.762ZM400.805 210.981L401.522 210.965C401.522 211.543 401.452 212.08 401.311 212.578C401.171 213.07 400.96 213.497 400.679 213.861C400.398 214.219 400.044 214.5 399.617 214.703C399.19 214.901 398.687 215 398.108 215C397.665 215 397.254 214.941 396.878 214.824C396.507 214.701 396.187 214.511 395.917 214.254C395.653 213.992 395.445 213.658 395.293 213.251C395.147 212.84 395.074 212.345 395.074 211.767V206.16H397.502V211.783C397.502 212.04 397.533 212.257 397.594 212.433C397.662 212.61 397.755 212.754 397.872 212.866C397.99 212.979 398.128 213.059 398.285 213.107C398.448 213.155 398.628 213.179 398.825 213.179C399.325 213.179 399.718 213.083 400.005 212.89C400.297 212.698 400.502 212.436 400.62 212.104C400.744 211.767 400.805 211.393 400.805 210.981Z"/>
<path fill="#0B0A24" d="M410.524 208.053V214.84H408.097V206.16H410.381L410.524 208.053ZM413.272 206.104L413.23 208.246C413.112 208.23 412.968 208.217 412.8 208.206C412.637 208.19 412.488 208.182 412.353 208.182C412.01 208.182 411.713 208.225 411.46 208.31C411.212 208.39 411.005 208.511 410.836 208.671C410.673 208.832 410.549 209.027 410.465 209.257C410.387 209.487 410.342 209.749 410.33 210.043L409.841 209.898C409.841 209.337 409.9 208.821 410.018 208.35C410.136 207.874 410.308 207.46 410.533 207.107C410.763 206.754 411.044 206.481 411.375 206.289C411.707 206.096 412.086 206 412.513 206C412.648 206 412.786 206.011 412.926 206.032C413.067 206.048 413.182 206.072 413.272 206.104Z"/>
<path fill="#0B0A24" d="M421.726 215C421.018 215 420.383 214.893 419.821 214.679C419.26 214.46 418.782 214.158 418.389 213.773C418.001 213.388 417.703 212.941 417.495 212.433C417.287 211.92 417.183 211.374 417.183 210.797V210.476C417.183 209.818 417.282 209.217 417.478 208.671C417.675 208.126 417.956 207.652 418.321 207.251C418.692 206.85 419.142 206.543 419.67 206.329C420.198 206.11 420.793 206 421.457 206C422.103 206 422.676 206.102 423.176 206.305C423.676 206.508 424.095 206.797 424.432 207.171C424.774 207.545 425.033 207.995 425.207 208.519C425.381 209.037 425.468 209.615 425.468 210.251V211.214H418.22V209.674H423.083V209.497C423.083 209.176 423.021 208.89 422.898 208.639C422.78 208.382 422.6 208.179 422.358 208.029C422.117 207.88 421.808 207.805 421.431 207.805C421.111 207.805 420.836 207.872 420.605 208.005C420.375 208.139 420.187 208.326 420.041 208.567C419.9 208.807 419.793 209.091 419.72 209.417C419.653 209.738 419.619 210.091 419.619 210.476V210.797C419.619 211.144 419.67 211.465 419.771 211.759C419.878 212.053 420.027 212.307 420.218 212.521C420.414 212.735 420.65 212.901 420.926 213.019C421.206 213.136 421.524 213.195 421.878 213.195C422.316 213.195 422.724 213.115 423.1 212.955C423.482 212.789 423.811 212.54 424.086 212.209L425.266 213.428C425.075 213.69 424.814 213.941 424.482 214.182C424.156 214.422 423.763 214.62 423.302 214.775C422.842 214.925 422.316 215 421.726 215Z"/>
<path fill="#0B0A24" d="M430.248 213.725C430.248 213.382 430.372 213.096 430.619 212.866C430.872 212.636 431.206 212.521 431.622 212.521C432.038 212.521 432.369 212.636 432.616 212.866C432.869 213.096 432.996 213.382 432.996 213.725C432.996 214.067 432.869 214.353 432.616 214.583C432.369 214.813 432.038 214.928 431.622 214.928C431.206 214.928 430.872 214.813 430.619 214.583C430.372 214.353 430.248 214.067 430.248 213.725Z"/>
<path fill="#0B0A24" d="M451.135 205.158L447.798 214.84H445.109L449.669 203.16H451.38L451.135 205.158ZM453.908 214.84L450.562 205.158L450.292 203.16H452.02L456.605 214.84H453.908ZM453.756 210.492V212.377H447.275V210.492H453.756Z"/>
<path fill="#0B0A24" d="M466.163 212.762V206.16H468.591V214.84H466.307L466.163 212.762ZM466.433 210.981L467.15 210.965C467.15 211.543 467.079 212.08 466.939 212.578C466.798 213.07 466.588 213.497 466.307 213.861C466.026 214.219 465.672 214.5 465.245 214.703C464.818 214.901 464.315 215 463.736 215C463.292 215 462.882 214.941 462.506 214.824C462.135 214.701 461.815 214.511 461.545 214.254C461.281 213.992 461.073 213.658 460.921 213.251C460.775 212.84 460.702 212.345 460.702 211.767V206.16H463.129V211.783C463.129 212.04 463.16 212.257 463.222 212.433C463.289 212.61 463.382 212.754 463.5 212.866C463.618 212.979 463.756 213.059 463.913 213.107C464.076 213.155 464.256 213.179 464.453 213.179C464.953 213.179 465.346 213.083 465.633 212.89C465.925 212.698 466.13 212.436 466.248 212.104C466.371 211.767 466.433 211.393 466.433 210.981Z"/>
<path fill="#0B0A24" d="M478.191 206.16V207.797H472.882V206.16H478.191ZM474.197 204.019H476.624V212.225C476.624 212.476 476.658 212.668 476.725 212.802C476.798 212.936 476.905 213.029 477.045 213.083C477.186 213.131 477.363 213.155 477.576 213.155C477.728 213.155 477.863 213.15 477.981 213.139C478.104 213.123 478.208 213.107 478.293 213.091L478.301 214.791C478.093 214.856 477.868 214.906 477.627 214.944C477.385 214.981 477.118 215 476.826 215C476.292 215 475.826 214.917 475.427 214.751C475.034 214.58 474.73 214.307 474.517 213.933C474.303 213.559 474.197 213.067 474.197 212.457V204.019Z"/>
<path fill="#0B0A24" d="M482.246 210.588V210.42C482.246 209.783 482.342 209.198 482.533 208.663C482.724 208.123 483.002 207.655 483.367 207.259C483.733 206.864 484.182 206.556 484.716 206.337C485.25 206.112 485.862 206 486.553 206C487.244 206 487.86 206.112 488.399 206.337C488.938 206.556 489.391 206.864 489.756 207.259C490.127 207.655 490.408 208.123 490.599 208.663C490.79 209.198 490.885 209.783 490.885 210.42V210.588C490.885 211.219 490.79 211.805 490.599 212.345C490.408 212.88 490.127 213.348 489.756 213.749C489.391 214.144 488.941 214.452 488.407 214.671C487.874 214.89 487.261 215 486.57 215C485.879 215 485.264 214.89 484.724 214.671C484.191 214.452 483.738 214.144 483.367 213.749C483.002 213.348 482.724 212.88 482.533 212.345C482.342 211.805 482.246 211.219 482.246 210.588ZM484.674 210.42V210.588C484.674 210.952 484.707 211.291 484.775 211.607C484.842 211.922 484.949 212.201 485.095 212.441C485.247 212.676 485.444 212.861 485.685 212.995C485.927 213.128 486.222 213.195 486.57 213.195C486.907 213.195 487.197 213.128 487.438 212.995C487.68 212.861 487.874 212.676 488.02 212.441C488.166 212.201 488.273 211.922 488.34 211.607C488.413 211.291 488.45 210.952 488.45 210.588V210.42C488.45 210.067 488.413 209.735 488.34 209.425C488.273 209.11 488.163 208.832 488.011 208.591C487.865 208.345 487.671 208.152 487.43 208.013C487.188 207.874 486.896 207.805 486.553 207.805C486.21 207.805 485.918 207.874 485.677 208.013C485.441 208.152 485.247 208.345 485.095 208.591C484.949 208.832 484.842 209.11 484.775 209.425C484.707 209.735 484.674 210.067 484.674 210.42Z"/>
<path fill="#0B0A24" d="M498.084 207.957V214.84H495.648V206.16H497.932L498.084 207.957ZM497.747 210.195H497.073C497.073 209.591 497.148 209.035 497.3 208.527C497.457 208.013 497.685 207.57 497.983 207.195C498.286 206.816 498.66 206.521 499.104 206.313C499.548 206.104 500.062 206 500.646 206C501.051 206 501.422 206.059 501.759 206.176C502.096 206.289 502.385 206.468 502.627 206.714C502.874 206.955 503.065 207.27 503.2 207.66C503.335 208.045 503.402 208.508 503.402 209.048V214.84H500.975V209.305C500.975 208.909 500.919 208.604 500.806 208.39C500.694 208.176 500.534 208.027 500.326 207.941C500.124 207.856 499.879 207.813 499.593 207.813C499.278 207.813 499.003 207.874 498.767 207.997C498.536 208.12 498.345 208.291 498.194 208.511C498.042 208.725 497.929 208.976 497.856 209.265C497.783 209.553 497.747 209.864 497.747 210.195ZM503.175 209.93L502.306 210.035C502.306 209.468 502.38 208.941 502.526 208.455C502.677 207.968 502.899 207.54 503.191 207.171C503.489 206.802 503.857 206.516 504.296 206.313C504.734 206.104 505.24 206 505.813 206C506.251 206 506.65 206.061 507.009 206.184C507.369 206.302 507.675 206.492 507.928 206.754C508.187 207.011 508.383 207.348 508.518 207.765C508.659 208.182 508.729 208.693 508.729 209.297V214.84H506.293V209.297C506.293 208.896 506.237 208.591 506.124 208.382C506.018 208.168 505.86 208.021 505.652 207.941C505.45 207.856 505.209 207.813 504.928 207.813C504.635 207.813 504.38 207.869 504.161 207.981C503.942 208.088 503.759 208.238 503.613 208.43C503.467 208.623 503.357 208.848 503.284 209.104C503.211 209.356 503.175 209.631 503.175 209.93Z"/>
<path fill="#0B0A24" d="M518.81 212.882V209.016C518.81 208.738 518.762 208.5 518.667 208.302C518.571 208.099 518.422 207.941 518.22 207.829C518.023 207.717 517.768 207.66 517.453 207.66C517.183 207.66 516.95 207.706 516.753 207.797C516.557 207.882 516.405 208.008 516.298 208.174C516.191 208.334 516.138 208.524 516.138 208.743H513.711C513.711 208.374 513.801 208.024 513.98 207.693C514.16 207.361 514.422 207.07 514.764 206.818C515.107 206.561 515.514 206.361 515.986 206.217C516.464 206.072 516.998 206 517.588 206C518.296 206 518.925 206.112 519.476 206.337C520.026 206.561 520.459 206.898 520.774 207.348C521.094 207.797 521.254 208.358 521.254 209.032V212.746C521.254 213.222 521.285 213.612 521.347 213.917C521.409 214.217 521.498 214.479 521.616 214.703V214.84H519.164C519.046 214.604 518.956 214.31 518.894 213.957C518.838 213.599 518.81 213.241 518.81 212.882ZM519.13 209.553L519.147 210.861H517.79C517.47 210.861 517.192 210.896 516.956 210.965C516.72 211.035 516.526 211.134 516.374 211.262C516.222 211.385 516.11 211.529 516.037 211.695C515.97 211.861 515.936 212.043 515.936 212.241C515.936 212.439 515.984 212.618 516.079 212.778C516.175 212.933 516.312 213.056 516.492 213.147C516.672 213.233 516.883 213.275 517.124 213.275C517.489 213.275 517.807 213.206 518.077 213.067C518.346 212.928 518.554 212.757 518.7 212.553C518.852 212.35 518.931 212.158 518.936 211.976L519.577 212.955C519.487 213.174 519.363 213.401 519.206 213.636C519.054 213.872 518.86 214.094 518.624 214.302C518.388 214.505 518.105 214.674 517.773 214.807C517.442 214.936 517.048 215 516.593 215C516.014 215 515.489 214.89 515.017 214.671C514.551 214.447 514.18 214.139 513.905 213.749C513.635 213.353 513.5 212.904 513.5 212.401C513.5 211.947 513.59 211.543 513.77 211.19C513.95 210.837 514.214 210.54 514.562 210.299C514.916 210.053 515.357 209.869 515.885 209.746C516.413 209.618 517.026 209.553 517.723 209.553H519.13Z"/>
<path fill="#0B0A24" d="M530.872 206.16V207.797H525.562V206.16H530.872ZM526.877 204.019H529.304V212.225C529.304 212.476 529.338 212.668 529.405 212.802C529.478 212.936 529.585 213.029 529.725 213.083C529.866 213.131 530.043 213.155 530.256 213.155C530.408 213.155 530.543 213.15 530.661 213.139C530.784 213.123 530.888 213.107 530.973 213.091L530.981 214.791C530.773 214.856 530.548 214.906 530.307 214.944C530.065 214.981 529.798 215 529.506 215C528.972 215 528.506 214.917 528.107 214.751C527.714 214.58 527.41 214.307 527.197 213.933C526.983 213.559 526.877 213.067 526.877 212.457V204.019Z"/>
<path fill="#0B0A24" d="M539.731 215C539.023 215 538.388 214.893 537.826 214.679C537.264 214.46 536.786 214.158 536.393 213.773C536.005 213.388 535.708 212.941 535.5 212.433C535.292 211.92 535.188 211.374 535.188 210.797V210.476C535.188 209.818 535.286 209.217 535.483 208.671C535.679 208.126 535.96 207.652 536.326 207.251C536.696 206.85 537.146 206.543 537.674 206.329C538.202 206.11 538.798 206 539.461 206C540.107 206 540.68 206.102 541.18 206.305C541.68 206.508 542.099 206.797 542.436 207.171C542.779 207.545 543.037 207.995 543.211 208.519C543.386 209.037 543.473 209.615 543.473 210.251V211.214H536.224V209.674H541.087V209.497C541.087 209.176 541.026 208.89 540.902 208.639C540.784 208.382 540.604 208.179 540.363 208.029C540.121 207.88 539.812 207.805 539.436 207.805C539.115 207.805 538.84 207.872 538.61 208.005C538.379 208.139 538.191 208.326 538.045 208.567C537.904 208.807 537.798 209.091 537.725 209.417C537.657 209.738 537.624 210.091 537.624 210.476V210.797C537.624 211.144 537.674 211.465 537.775 211.759C537.882 212.053 538.031 212.307 538.222 212.521C538.419 212.735 538.655 212.901 538.93 213.019C539.211 213.136 539.528 213.195 539.882 213.195C540.321 213.195 540.728 213.115 541.104 212.955C541.486 212.789 541.815 212.54 542.09 212.209L543.27 213.428C543.079 213.69 542.818 213.941 542.487 214.182C542.161 214.422 541.767 214.62 541.307 214.775C540.846 214.925 540.321 215 539.731 215Z"/>
<path fill="#0B0A24" d="M548.252 213.725C548.252 213.382 548.376 213.096 548.623 212.866C548.876 212.636 549.21 212.521 549.626 212.521C550.042 212.521 550.374 212.636 550.621 212.866C550.874 213.096 551 213.382 551 213.725C551 214.067 550.874 214.353 550.621 214.583C550.374 214.813 550.042 214.928 549.626 214.928C549.21 214.928 548.876 214.813 548.623 214.583C548.376 214.353 548.252 214.067 548.252 213.725Z"/>
<defs>
<linearGradient gradientUnits="userSpaceOnUse" y2="172.5" x2="125" y1="0" x1="0" id="paint0_linear_175_2">
<stop stop-color="#005E9C"/>
<stop stop-color="#BCD9F1" offset="1"/>
</linearGradient>
<linearGradient gradientUnits="userSpaceOnUse" y2="48" x2="73" y1="39" x1="73" id="paint1_linear_175_2">
<stop stop-color="#BCD9F1"/>
<stop stop-color="#005D9B" offset="1"/>
</linearGradient>
<linearGradient gradientUnits="userSpaceOnUse" y2="68" x2="73" y1="59" x1="73" id="paint2_linear_175_2">
<stop stop-color="#BCD9F1"/>
<stop stop-color="#005D9B" offset="1"/>
</linearGradient>
<linearGradient gradientUnits="userSpaceOnUse" y2="88" x2="64" y1="79" x1="64" id="paint3_linear_175_2">
<stop stop-color="#BCD9F1"/>
<stop stop-color="#005D9B" offset="1"/>
</linearGradient>
</defs>
</svg>